<svg width="15" height="16" viewBox="0 0 15 16" fill="none" xmlns="http://www.w3.org/2000/svg">
    <path d="M5.38427 5.58889L5.12422 5.6268L1.31953 6.18149L1.31917 6.18154C1.04752 6.22094 0.937286 6.55758 1.13527 6.75036L1.13541 6.75049L3.88801 9.43279L4.07638 9.61634L4.03184 9.87555L3.38086 13.6643C3.33418 13.9371 3.62217 14.143 3.86215 14.0158L3.86372 14.015L7.26737 12.2259L7.5 12.1036L7.73264 12.2259L11.1363 14.015L11.1364 14.015C11.3798 14.143 11.6653 13.9341 11.6191 13.6643L10.9682 9.87555L10.9236 9.61634L11.112 9.43279L13.8646 6.75049L13.8647 6.75036C14.0627 6.55758 13.9525 6.22094 13.6808 6.18154L13.6805 6.18149L9.87579 5.6268L9.61574 5.58889L9.49949 5.35319L7.79943 1.9062C7.79935 1.90605 7.79928 1.9059 7.7992 1.90574C7.67547 1.65704 7.32234 1.65994 7.20103 1.90528L5.38427 5.58889ZM5.38427 5.58889L5.50051 5.35319L7.20094 1.90547L5.38427 5.58889Z"
          fill="white" stroke="#6B5995"/>
</svg>
